<?xml version="1.0" encoding="utf-8"?>
<!-- Generator: Adobe Illustrator 27.9.0, SVG Export Plug-In . SVG Version: 6.00 Build 0)  -->
<svg version="1.1" id="Arte" xmlns="http://www.w3.org/2000/svg" xmlns:xlink="http://www.w3.org/1999/xlink" x="0px" y="0px"
	 viewBox="0 0 505.9 91.7" style="enable-background:new 0 0 505.9 91.7;" xml:space="preserve">
<style type="text/css">
	.st0{fill:url(#SVGID_1_);}
	.st1{opacity:0.8;fill:url(#SVGID_00000144296660749067005910000009282591811558977706_);}
	.st2{fill:#464646;}
	.st3{fill:url(#SVGID_00000023240365639759979750000008328671785462068903_);}
	.st4{fill:url(#SVGID_00000007395553574919154930000008297392551564677823_);}
	.st5{fill:url(#SVGID_00000129893707056444423300000002414476062053445016_);}
	.st6{fill:url(#SVGID_00000114791670627955738030000014294169179049677994_);}
	.st7{fill:url(#SVGID_00000061450010100570820310000012329444568473340037_);}
	.st8{opacity:0.8;fill:url(#SVGID_00000168074663161692936880000008651746206163937970_);}
	.st9{fill:#FFFFFF;}
	.st10{fill:url(#SVGID_00000136373982355625153580000010650091521121288590_);}
	.st11{fill:url(#SVGID_00000126322828620975779190000002454387866554746014_);}
	.st12{fill:url(#SVGID_00000064338146612697570940000016366666997565705640_);}
	.st13{fill:url(#SVGID_00000083055899333446207290000017154049960785757112_);}
	.st14{opacity:0.9;fill:#FFFFFF;}
	.st15{opacity:0.8;fill:#FFFFFF;}
</style>
<g>
	<g>
		<linearGradient id="SVGID_1_" gradientUnits="userSpaceOnUse" x1="408.5551" y1="28.4829" x2="471.035" y2="52.6418">
			<stop  offset="0" style="stop-color:#25E2AB"/>
			<stop  offset="1" style="stop-color:#3D8BAC"/>
		</linearGradient>
		<path class="st0" d="M505.9,45.8c-0.1,2.5-0.9,5-2.5,7.6c-1.7,2.7-4,4.9-6.6,6.7l-43.7,29c13.2-15.6,13.1-30.1,0.3-43.3
			c-0.1-0.1-0.2-0.2-0.3-0.3l-19.4-20c-2.5-2.6-4.2-5.9-4.7-9.5c-1-8.6,4.8-15.5,14-16c3.5-0.2,7,0.8,10.1,2.6l43.7,29
			c2.6,1.7,5,4,6.6,6.7C505,40.8,505.9,43.3,505.9,45.8z"/>
		
			<linearGradient id="SVGID_00000044867693823270395710000016954773500272964236_" gradientUnits="userSpaceOnUse" x1="497.4567" y1="13.3564" x2="423.9612" y2="72.3236">
			<stop  offset="0" style="stop-color:#25E2AB"/>
			<stop  offset="0.9988" style="stop-color:#3D8BAC"/>
		</linearGradient>
		<path style="opacity:0.8;fill:url(#SVGID_00000044867693823270395710000016954773500272964236_);" d="M505.9,45.8
			c-0.1,2.5-0.9,5-2.5,7.6c-1.7,2.7-4,4.9-6.6,6.7l-43.7,29c-3.1,1.8-6.6,2.7-10.1,2.5c-9.2-0.5-15-7.5-14-16
			c0.5-3.6,2.2-6.9,4.7-9.5l19.4-20c0.1-0.1,0.2-0.2,0.3-0.3c12.7-13.1,12.9-27.6-0.3-43.2l43.7,29c2.6,1.7,5,4,6.6,6.7
			C505,40.8,505.9,43.3,505.9,45.8z"/>
	</g>
	<path class="st9" d="M79.3,80.7L79.3,80.7C79.3,80.7,79.3,80.7,79.3,80.7C79.2,80.7,79.3,80.7,79.3,80.7z"/>
	<path class="st9" d="M70.4,27.7c0,16.4-9.6,25.5-27,25.5H9.4v27.9c0,3-1.8,5-4.6,5c-3,0-4.8-1.9-4.8-5V48.7c0-2.4,1.9-4.3,4.3-4.3
		h38.6c11.9,0,18-5.6,18-16.7c0-11-6.1-16.6-18-16.6H4.4c-2.2,0-4.2-1.7-4.4-3.9C0,7,0,6.9,0,6.8c0-1.2,0.5-2.3,1.3-3.1
		c0.8-0.8,1.9-1.3,3.1-1.3h12.5c0.1,0,0.2,0,0.2,0h26.2C60.8,2.3,70.4,11.4,70.4,27.7z"/>
	<path class="st9" d="M193.9,86.2c-2.3,0-4.1-1.2-5.1-3.7l-34-73.7c-0.4-1-0.6-1.7-0.6-2.5c0-2.7,2-4.6,4.8-4.6
		c2.7,0,3.8,1.7,4.5,3.2L194,71.6l30.7-67c1-2.5,2.9-3,4.3-3c2.7,0,4.6,1.9,4.6,4.6c0,0.9-0.2,1.7-0.6,2.6l-34,73.6
		C198,84.8,196.2,86.2,193.9,86.2z"/>
	<path class="st9" d="M82.2,85.4c-2.4,0-4.4-2-4.4-4.4c0-0.1,0-0.2,0-0.4v-0.2l0-0.1c0.3-2.1,2.2-3.7,4.3-3.7h28
		c21.2,0,33.9-12.2,33.9-32.7c0-20.5-12.7-32.7-33.9-32.7h-28c-1.2,0-2.3-0.5-3.1-1.3c-0.7-0.7-1.2-1.7-1.3-2.7c0-0.2,0-0.3,0-0.4
		c0-2.4,2-4.4,4.4-4.4h27.7c27.4,0,43.8,15.5,43.8,41.6c0,12.7-4.1,23.2-11.7,30.5c-7.6,7.2-18.8,11.1-32.1,11.1H82.2z"/>
	<polygon class="st9" points="79.6,80.9 77.9,81.2 77.7,80.7 78,80.1 80.7,80.7 80.7,81 80.5,81.4 	"/>
	<g>
		
			<linearGradient id="SVGID_00000123409946877815265460000001486039172365244071_" gradientUnits="userSpaceOnUse" x1="240.6742" y1="44.2337" x2="408.4906" y2="44.2337">
			<stop  offset="0" style="stop-color:#25E2AB"/>
			<stop  offset="1" style="stop-color:#3D8BAC"/>
		</linearGradient>
		<path style="fill:url(#SVGID_00000123409946877815265460000001486039172365244071_);" d="M303.6,2.3c2.7,0,4.5,1.6,4.5,4.1
			c0,2.6-1.7,4.2-4.5,4.2h-53.5v30.5h44.4c2.7,0,4.5,1.6,4.5,4.2c0,2.5-1.7,4.1-4.5,4.1h-44.4v31.8c0,3.1-1.7,5-4.6,5
			c-2.9,0-4.5-1.9-4.5-5V7.3c0-3.1,1.7-5,4.8-5H303.6z"/>
		
			<linearGradient id="SVGID_00000162329888637375783020000010264581475443176112_" gradientUnits="userSpaceOnUse" x1="240.6742" y1="43.8902" x2="408.4906" y2="43.8902">
			<stop  offset="0" style="stop-color:#25E2AB"/>
			<stop  offset="1" style="stop-color:#3D8BAC"/>
		</linearGradient>
		<path style="fill:url(#SVGID_00000162329888637375783020000010264581475443176112_);" d="M324.1,6.2v75.4c0,2.9-1.6,4.6-4.2,4.6
			c-2.7,0-4.3-1.7-4.3-4.6V6.2c0-2.9,1.6-4.6,4.3-4.6C322.5,1.6,324.1,3.4,324.1,6.2z"/>
		
			<linearGradient id="SVGID_00000178906232321890067200000013007333738973345182_" gradientUnits="userSpaceOnUse" x1="240.6742" y1="43.8902" x2="408.4906" y2="43.8902">
			<stop  offset="0" style="stop-color:#25E2AB"/>
			<stop  offset="1" style="stop-color:#3D8BAC"/>
		</linearGradient>
		<path style="fill:url(#SVGID_00000178906232321890067200000013007333738973345182_);" d="M336.8,7.1c0-3.2,2.1-5.5,5.3-5.5
			c3.1,0,5.2,2.2,5.2,5.5c0,3.1-2.1,5.3-5.2,5.3C338.9,12.4,336.8,10.2,336.8,7.1z M346.3,30.2v51.3c0,2.9-1.6,4.6-4.2,4.6
			c-2.7,0-4.3-1.7-4.3-4.6V30.2c0-3,1.6-4.6,4.3-4.6C344.7,25.6,346.3,27.2,346.3,30.2z"/>
		
			<linearGradient id="SVGID_00000063615965714324231260000000794917414820377218_" gradientUnits="userSpaceOnUse" x1="240.6742" y1="55.8927" x2="408.4906" y2="55.8927">
			<stop  offset="0" style="stop-color:#25E2AB"/>
			<stop  offset="1" style="stop-color:#3D8BAC"/>
		</linearGradient>
		<path style="fill:url(#SVGID_00000063615965714324231260000000794917414820377218_);" d="M411.4,78.5c0.9,1,1.4,2.1,1.4,3.5
			c0,2.5-1.7,4.2-4.2,4.2c-1.6,0-2.6-0.6-3.6-1.7l-20.8-23.6l-20.8,23.7c-1,1.1-2,1.6-3.5,1.6c-2.5,0-4.1-1.6-4.1-4.2
			c0-1.4,0.4-2.1,1.2-3l21.3-23.3l-20.6-22.3c-0.9-1-1.4-2.1-1.4-3.5c0-2.5,1.7-4.2,4.2-4.2c1.6,0,2.6,0.6,3.6,1.7l20.2,22.8
			l20.2-22.9c1-1.1,2-1.6,3.5-1.6c2.5,0,4.1,1.6,4.1,4.2c0,1.4-0.4,2.1-1.2,3l-20.7,22.6L411.4,78.5z"/>
	</g>
</g>
</svg>
