<?xml version="1.0" encoding="utf-8"?>
<!-- Generator: Adobe Illustrator 27.9.0, SVG Export Plug-In . SVG Version: 6.00 Build 0)  -->
<svg version="1.1" xmlns="http://www.w3.org/2000/svg" xmlns:xlink="http://www.w3.org/1999/xlink" x="0px" y="0px"
	 viewBox="0 0 828.8 108.9" style="enable-background:new 0 0 828.8 108.9;" xml:space="preserve">
<style type="text/css">
	.st0{display:none;}
	.st1{display:inline;fill:url(#SVGID_1_);}
	.st2{display:inline;fill:url(#SVGID_00000176734554979003305260000000752505899567448707_);}
	.st3{fill:#464646;}
	.st4{fill:#FFFFFF;}
	.st5{opacity:0.9;fill:#FFFFFF;}
	.st6{opacity:0.8;fill:#FFFFFF;}
	.st7{opacity:0.8;fill:url(#SVGID_00000111182509737436933310000002556231817559815826_);}
	.st8{opacity:0.8;fill:url(#SVGID_00000047769606011352761430000006526884154595184304_);}
	.st9{fill:url(#SVGID_00000125586269515213831270000013502477811163723137_);}
	.st10{fill:url(#SVGID_00000168107444421302021690000013904362054986557074_);}
	.st11{fill:url(#SVGID_00000102513147254398608640000015135702409008680851_);}
	.st12{fill:url(#SVGID_00000180347806092116719780000013813219370634846621_);}
	.st13{fill:url(#SVGID_00000111154779644621971770000005630475318567217796_);}
	.st14{fill:url(#SVGID_00000144331985038605956960000010331957001944092067_);}
	.st15{fill:url(#SVGID_00000168822440016574882120000006472627682776389004_);}
	.st16{fill:url(#SVGID_00000162328964841125635380000006615021642507176072_);}
	.st17{fill:url(#SVGID_00000117641697157928331670000016717634810634547101_);}
	.st18{fill:url(#SVGID_00000003801637515390504960000009819310604516885687_);}
	.st19{fill:url(#SVGID_00000102543100751614267600000004570378581652965823_);}
	.st20{fill:url(#SVGID_00000029019578444742568160000005340744975024532099_);}
	.st21{fill:url(#SVGID_00000129184234883643463360000015877293659254055327_);}
	.st22{fill:url(#SVGID_00000170963459404304436860000013857725950580855459_);}
	.st23{fill:url(#SVGID_00000025431182563812953720000017328256786240242309_);}
	.st24{fill:url(#SVGID_00000138568022802118548010000004146856176162276270_);}
	.st25{opacity:0.8;fill:url(#SVGID_00000156568882572521602040000011325065873310133923_);}
	.st26{opacity:0.8;fill:url(#SVGID_00000146457153036881085940000001724377820913384115_);}
</style>
<g id="Template" class="st0">
	<linearGradient id="SVGID_1_" gradientUnits="userSpaceOnUse" x1="414.8426" y1="-594.7185" x2="414.8426" y2="222.7761">
		<stop  offset="0" style="stop-color:#3D8BAC"/>
		<stop  offset="1" style="stop-color:#523EAD"/>
	</linearGradient>
	<rect x="-155.8" y="-275.8" class="st1" width="1141.4" height="642"/>
</g>
<g id="Arte">
	<g>
		<g>
			<g>
				<g>
					<path class="st4" d="M249.8,58.8v21.8c0,2.9-1.7,4.8-4.4,4.8c-2.8,0-4.4-1.8-4.4-4.8V39.3c0-24.8,13.2-38.3,36.9-38.3
						c23.6,0,36.9,13.5,36.9,38.3v41.2c0,3.1-1.7,4.9-4.5,4.9c-2.7,0-4.4-1.8-4.4-4.9V58.8v-8.2V39.1c0-19.7-9.8-29.8-28.1-29.8
						c-18.2,0-28,10.1-28,29.8v11.5V58.8z"/>
					<path class="st4" d="M298,54.9L298,54.9c0,2.3-1.9,4.2-4.2,4.2h-31.8c-2.3,0-4.2-1.9-4.2-4.2v0c0-2.3,1.9-4.2,4.2-4.2h31.8
						C296.1,50.7,298,52.5,298,54.9z"/>
				</g>
				<path class="st4" d="M375,75.2c-5.4,7.1-13.9,11-24.2,11c-18.2,0-30.8-12.4-30.8-30.5c0-18.2,12.6-30.5,30.8-30.5
					c9.2,0,17,3.1,22.9,9.3c0.7,0.9,1,1.7,1,2.7c0,2.4-1.6,4-3.9,4c-1.3,0-2.3-0.6-3.3-1.6c-4-4.3-9.9-6.8-16.7-6.8
					c-13.2,0-22.2,9.3-22.2,22.9c0,13.7,9,22.9,22.2,22.9c7.7,0,13.8-2.9,18.1-8.4c0.6-0.7,1.7-1.2,2.9-1.2c2.3,0,3.9,1.6,3.9,3.9
					C375.7,73.7,375.4,74.4,375,75.2z"/>
				<path class="st4" d="M440.5,30.4v50.5c0,2.8-1.5,4.5-4.1,4.5c-2.7,0-4.3-1.7-4.3-4.5v-5.7h-0.2c-4.6,7-12.8,11-23.3,11
					c-17.6,0-29.4-12.2-29.4-30.5c0-18.3,11.8-30.5,29.4-30.5c10.5,0,18.7,4,23.3,11h0.2v-5.7c0-2.9,1.6-4.5,4.3-4.5
					C439,25.9,440.5,27.5,440.5,30.4z M432.1,55.7c0-13.5-9.2-22.9-22.2-22.9c-13.2,0-22.2,9.3-22.2,22.9c0,13.7,9,22.9,22.2,22.9
					C422.9,78.6,432.1,69.3,432.1,55.7z"/>
				<path class="st4" d="M507.2,5.6v75.4c0,2.8-1.5,4.5-4.1,4.5c-2.7,0-4.3-1.7-4.3-4.5v-5.7h-0.2c-4.6,7-12.8,11-23.3,11
					c-17.6,0-29.4-12.2-29.4-30.5c0-18.3,11.8-30.5,29.4-30.5c10.5,0,18.7,4,23.3,11h0.2V5.6c0-2.9,1.6-4.5,4.3-4.5
					C505.7,1,507.2,2.6,507.2,5.6z M498.7,55.7c0-13.5-9.2-22.9-22.2-22.9c-13.2,0-22.2,9.3-22.2,22.9c0,13.7,9,22.9,22.2,22.9
					C489.6,78.6,498.7,69.3,498.7,55.7z"/>
				<path class="st4" d="M565.2,51.3c-1.7-11.1-10.1-18.5-22-18.5c-11.7,0-20.1,7.4-21.8,18.5c0,0-0.7,3-0.2,7.3
					c1.3,12,10,20,22.8,20c7.8,0,14.2-3,17.9-7.9c0.7-1,2-1.7,3.4-1.7c2.3,0,3.9,1.6,3.9,3.9c0,1-0.2,1.7-0.9,2.6
					c-5.2,6.7-14,10.7-24.4,10.7c-18.9,0-31.5-12.3-31.5-30.5s12.6-30.5,30.8-30.5c17.3,0,29.9,12.1,29.9,28.3c0,3.3-2,5.1-5.4,5.1
					h-37.1c-2,0-3.7-1.6-3.7-3.7c0-1,0.4-1.9,1.1-2.6c0.7-0.7,1.6-1.1,2.6-1.1H565.2z"/>
				<path class="st4" d="M667.9,51.1v29.8c0,2.8-1.6,4.5-4.3,4.5c-2.6,0-4.1-1.7-4.1-4.5v-29c0-12.4-5.2-19.2-15.4-19.2
					c-10.4,0-16.8,8.3-16.8,21.4v26.8c0,2.8-1.6,4.5-4.3,4.5c-2.6,0-4.1-1.7-4.1-4.5v-29c0-12.4-5.2-19.2-15.5-19.2
					c-10.3,0-16.7,8.3-16.7,21.4v26.8c0,2.8-1.6,4.5-4.1,4.5c-2.7,0-4.3-1.7-4.3-4.5V30.4c0-2.9,1.6-4.5,4.3-4.5
					c2.6,0,4.1,1.6,4.1,4.5v3.9h0.2c3.9-5.9,10.3-9.2,18.3-9.2c9.2,0,15.9,3.9,19.2,11.1h0.2c3.9-7.1,10.9-11.1,20.9-11.1
					C660.3,25.1,667.9,34.2,667.9,51.1z"/>
				<path class="st4" d="M730.7,30.4v49.8c0,17.8-12,28.7-29.9,28.7c-10.7,0-19.8-3.2-24.5-9.6c-0.6-0.9-0.9-1.6-0.9-2.6
					c0-2.3,1.6-4,4-4c1,0,1.8,0.4,2.6,1.1c4.8,5.2,10.7,7.6,18.7,7.6c12.8,0,20.6-7.9,20.6-20.9v-5.9H721
					c-4.4,6.6-11.8,10.5-21.7,10.5c-16.2,0-25.1-9.5-25.1-27.1V30.4c0-2.9,1.6-4.5,4.1-4.5c2.7,0,4.3,1.6,4.3,4.5v26.8
					c0,13.2,6.5,20.3,18.5,20.3c12.2,0,20.1-8.8,20.1-22.7V30.4c0-2.9,2.6-4.5,5.3-4.5C729.1,25.9,730.7,27.5,730.7,30.4z"/>
			</g>
			<g>
				<path class="st4" d="M70.4,27.1c0,16.4-9.6,25.5-27,25.5H9.4v27.9c0,3-1.8,5-4.6,5c-3,0-4.8-1.9-4.8-5V48.1
					c0-2.4,1.9-4.3,4.3-4.3h38.6c11.9,0,18-5.6,18-16.7c0-11-6.1-16.6-18-16.6H4.4c-2.2,0-4.2-1.7-4.4-3.9c0-0.2,0-0.4,0-0.5
					C0,4.9,0.5,3.8,1.3,3c0.8-0.8,1.9-1.3,3.1-1.3h12.5c0.1,0,0.2,0,0.2,0h26.2C60.8,1.7,70.4,10.7,70.4,27.1z"/>
				<path class="st4" d="M193.9,85.5c-2.3,0-4.1-1.2-5.1-3.7l-34-73.7c-0.4-1-0.6-1.7-0.6-2.5c0-2.7,2-4.6,4.8-4.6
					c2.7,0,3.8,1.7,4.5,3.2L194,71l30.7-67c1-2.5,2.9-3,4.3-3c2.7,0,4.6,1.9,4.6,4.6c0,0.9-0.2,1.7-0.6,2.6l-34,73.6
					C198,84.2,196.2,85.5,193.9,85.5z"/>
				<path class="st4" d="M82.2,84.8c-2.4,0-4.4-2-4.4-4.4c0-0.1,0-0.2,0-0.4v-0.2l0-0.1c0.3-2.1,2.2-3.7,4.3-3.7h28
					c21.2,0,33.9-12.2,33.9-32.7c0-20.5-12.7-32.7-33.9-32.7h-28c-1.2,0-2.3-0.5-3.1-1.3c-0.7-0.7-1.2-1.7-1.3-2.7
					c0-0.2,0-0.3,0-0.4c0-2.4,2-4.4,4.4-4.4h27.7c27.4,0,43.8,15.5,43.8,41.6c0,12.7-4.1,23.2-11.7,30.5
					c-7.6,7.2-18.8,11.1-32.1,11.1H82.2z"/>
			</g>
			<g>
				<path class="st5" d="M828.8,45.8c-0.1,2.5-0.9,5-2.5,7.6c-1.7,2.7-4,4.9-6.6,6.7l-43.7,29c13.2-15.6,13.1-30.1,0.3-43.3
					c-0.1-0.1-0.2-0.2-0.3-0.3l-19.4-20c-2.5-2.6-4.2-5.9-4.7-9.5c-1-8.6,4.8-15.5,14-16c3.5-0.2,7,0.8,10.1,2.6l43.7,29
					c2.6,1.7,5,4,6.6,6.7C827.8,40.8,828.7,43.3,828.8,45.8z"/>
				<path class="st6" d="M828.8,45.8c-0.1,2.5-0.9,5-2.5,7.6c-1.7,2.7-4,4.9-6.6,6.7l-43.7,29c-3.1,1.8-6.6,2.7-10.1,2.5
					c-9.2-0.5-15-7.5-14-16c0.5-3.6,2.2-6.9,4.7-9.5l19.4-20c0.1-0.1,0.2-0.2,0.3-0.3c12.7-13.1,12.9-27.6-0.3-43.2l43.7,29
					c2.6,1.7,5,4,6.6,6.7C827.8,40.8,828.7,43.3,828.8,45.8z"/>
			</g>
		</g>
	</g>
</g>
</svg>
