<?xml version="1.0" encoding="utf-8"?>
<!-- Generator: Adobe Illustrator 27.9.0, SVG Export Plug-In . SVG Version: 6.00 Build 0)  -->
<svg version="1.1" xmlns="http://www.w3.org/2000/svg" xmlns:xlink="http://www.w3.org/1999/xlink" x="0px" y="0px"
	 viewBox="0 0 828.8 108.9" style="enable-background:new 0 0 828.8 108.9;" xml:space="preserve">
<style type="text/css">
	.st0{display:none;}
	.st1{display:inline;fill:url(#SVGID_1_);}
	.st2{display:inline;fill:url(#SVGID_00000103253025770561140850000017636249182247834001_);}
	.st3{fill:#464646;}
	.st4{fill:#FFFFFF;}
	.st5{opacity:0.9;fill:#FFFFFF;}
	.st6{opacity:0.8;fill:#FFFFFF;}
	.st7{opacity:0.8;fill:url(#SVGID_00000161597179626838629300000008083189962799002790_);}
	.st8{opacity:0.8;fill:url(#SVGID_00000180353336565537913360000000936062129348898487_);}
	.st9{fill:url(#SVGID_00000005988759562322110240000015998023546982850945_);}
	.st10{fill:url(#SVGID_00000061470208497566617410000006028328558509076105_);}
	.st11{fill:url(#SVGID_00000088093083574245412610000009890573673483173770_);}
	.st12{fill:url(#SVGID_00000062915219322204116590000011651508623000843918_);}
	.st13{fill:url(#SVGID_00000015331227988198676500000017681993517008167817_);}
	.st14{fill:url(#SVGID_00000031897039307310811240000013369762070665924491_);}
	.st15{fill:url(#SVGID_00000059297516441005952190000006475900767168428469_);}
	.st16{fill:url(#SVGID_00000065785639035542471820000002979034908363173025_);}
	.st17{fill:url(#SVGID_00000107546160402975687240000017340756281660838585_);}
	.st18{fill:url(#SVGID_00000128453986247429256850000001357981210590135472_);}
	.st19{fill:url(#SVGID_00000125598348328292130980000016127222982570205104_);}
	.st20{fill:url(#SVGID_00000023246512341358191960000002280380787775727805_);}
	.st21{fill:url(#SVGID_00000004523801083840416940000010994560471812386436_);}
	.st22{fill:url(#SVGID_00000140708582759441159490000013478553511744235180_);}
	.st23{fill:url(#SVGID_00000109707706795820226360000010235226818678693038_);}
	.st24{fill:url(#SVGID_00000112607795685998648970000013925105361074550700_);}
	.st25{opacity:0.8;fill:url(#SVGID_00000156567550921843412860000007035360438719690148_);}
	.st26{opacity:0.8;fill:url(#SVGID_00000132775950364763359210000006872274857858799746_);}
</style>
<g id="Template" class="st0">
</g>
<g id="Arte">
	<path class="st3" d="M240.7,80L240.7,80C240.7,80.1,240.7,80.1,240.7,80C240.7,80.1,240.7,80.1,240.7,80z"/>
	<polygon class="st3" points="241.1,80.3 239.4,80.6 239.2,80 239.4,79.4 242.1,80 242.1,80.4 242,80.7 	"/>
	<g>
		<g>
			<linearGradient id="SVGID_1_" gradientUnits="userSpaceOnUse" x1="731.4306" y1="28.4829" x2="793.9105" y2="52.6418">
				<stop  offset="0" style="stop-color:#3D8BAC"/>
				<stop  offset="1" style="stop-color:#523EAD"/>
			</linearGradient>
			<path style="opacity:0.8;fill:url(#SVGID_1_);" d="M828.8,45.8c-0.1,2.5-0.9,5-2.5,7.6c-1.7,2.7-4,4.9-6.6,6.7l-43.7,29
				c13.2-15.6,13.1-30.1,0.3-43.3c-0.1-0.1-0.2-0.2-0.3-0.3l-19.4-20c-2.5-2.6-4.2-5.9-4.7-9.5c-1-8.6,4.8-15.5,14-16
				c3.5-0.2,7,0.8,10.1,2.6l43.7,29c2.6,1.7,5,4,6.6,6.7C827.9,40.8,828.7,43.3,828.8,45.8z"/>
			
				<linearGradient id="SVGID_00000170246335997257709800000016284272834793972152_" gradientUnits="userSpaceOnUse" x1="820.3322" y1="13.3564" x2="746.8368" y2="72.3236">
				<stop  offset="0" style="stop-color:#3D8BAC"/>
				<stop  offset="1" style="stop-color:#523EAD"/>
			</linearGradient>
			<path style="opacity:0.8;fill:url(#SVGID_00000170246335997257709800000016284272834793972152_);" d="M828.8,45.8
				c-0.1,2.5-0.9,5-2.5,7.6c-1.7,2.7-4,4.9-6.6,6.7l-43.7,29c-3.1,1.8-6.6,2.7-10.1,2.5c-9.2-0.5-15-7.5-14-16
				c0.5-3.6,2.2-6.9,4.7-9.5l19.4-20c0.1-0.1,0.2-0.2,0.3-0.3C789,32.7,789.1,18.2,776,2.6l43.7,29c2.6,1.7,5,4,6.6,6.7
				C827.9,40.8,828.7,43.3,828.8,45.8z"/>
		</g>
		<g>
			<path class="st3" d="M70.4,27.1c0,16.4-9.6,25.5-27,25.5H9.4v27.9c0,3-1.8,5-4.6,5c-3,0-4.8-1.9-4.8-5V48.1
				c0-2.4,1.9-4.3,4.3-4.3h38.6c11.9,0,18-5.6,18-16.7c0-11-6.1-16.6-18-16.6H4.4c-2.2,0-4.2-1.7-4.4-3.9c0-0.2,0-0.4,0-0.5
				C0,4.9,0.5,3.8,1.3,3c0.8-0.8,1.9-1.3,3.1-1.3h12.5c0.1,0,0.2,0,0.2,0h26.2C60.8,1.7,70.4,10.7,70.4,27.1z"/>
			<path class="st3" d="M193.9,85.5c-2.3,0-4.1-1.2-5.1-3.7l-34-73.7c-0.4-1-0.6-1.7-0.6-2.5c0-2.7,2-4.6,4.8-4.6
				c2.7,0,3.8,1.7,4.5,3.2L194,71l30.7-67c1-2.5,2.9-3,4.3-3c2.7,0,4.6,1.9,4.6,4.6c0,0.9-0.2,1.7-0.6,2.6l-34,73.6
				C198,84.2,196.2,85.5,193.9,85.5z"/>
			<path class="st3" d="M82.2,84.8c-2.4,0-4.4-2-4.4-4.4c0-0.1,0-0.2,0-0.4v-0.2l0-0.1c0.3-2.1,2.2-3.7,4.3-3.7h28
				c21.2,0,33.9-12.2,33.9-32.7c0-20.5-12.7-32.7-33.9-32.7h-28c-1.2,0-2.3-0.5-3.1-1.3c-0.7-0.7-1.2-1.7-1.3-2.7c0-0.2,0-0.3,0-0.4
				c0-2.4,2-4.4,4.4-4.4h27.7c27.4,0,43.8,15.5,43.8,41.6c0,12.7-4.1,23.2-11.7,30.5c-7.6,7.2-18.8,11.1-32.1,11.1H82.2z"/>
		</g>
		<g>
			<g>
				
					<linearGradient id="SVGID_00000147201502424580890800000004088332823206377608_" gradientUnits="userSpaceOnUse" x1="234.5416" y1="43.2378" x2="513.5195" y2="43.2378">
					<stop  offset="0" style="stop-color:#3C8FAC"/>
					<stop  offset="1" style="stop-color:#523EAD"/>
				</linearGradient>
				<path style="fill:url(#SVGID_00000147201502424580890800000004088332823206377608_);" d="M249.8,58.8v21.8
					c0,2.9-1.7,4.8-4.4,4.8c-2.8,0-4.4-1.8-4.4-4.8V39.3c0-24.8,13.2-38.3,36.9-38.3c23.6,0,36.9,13.5,36.9,38.3v41.2
					c0,3.1-1.7,4.9-4.5,4.9c-2.7,0-4.4-1.8-4.4-4.9V58.8v-8.2V39.1c0-19.7-9.8-29.8-28.1-29.8c-18.2,0-28,10.1-28,29.8v11.5V58.8z"
					/>
				
					<linearGradient id="SVGID_00000181770752995060093810000008569804232872084150_" gradientUnits="userSpaceOnUse" x1="234.5416" y1="54.8661" x2="513.5195" y2="54.8661">
					<stop  offset="0" style="stop-color:#3C8FAC"/>
					<stop  offset="1" style="stop-color:#523EAD"/>
				</linearGradient>
				<path style="fill:url(#SVGID_00000181770752995060093810000008569804232872084150_);" d="M298,54.9L298,54.9
					c0,2.3-1.9,4.2-4.2,4.2h-31.8c-2.3,0-4.2-1.9-4.2-4.2v0c0-2.3,1.9-4.2,4.2-4.2h31.8C296.1,50.7,298,52.5,298,54.9z"/>
			</g>
			
				<linearGradient id="SVGID_00000153691718880429393250000000034779504408348834_" gradientUnits="userSpaceOnUse" x1="234.5416" y1="55.6554" x2="513.5195" y2="55.6554">
				<stop  offset="0" style="stop-color:#3C8FAC"/>
				<stop  offset="1" style="stop-color:#523EAD"/>
			</linearGradient>
			<path style="fill:url(#SVGID_00000153691718880429393250000000034779504408348834_);" d="M375,75.2c-5.4,7.1-13.9,11-24.2,11
				c-18.2,0-30.8-12.4-30.8-30.5c0-18.2,12.6-30.5,30.8-30.5c9.2,0,17,3.1,22.9,9.3c0.7,0.9,1,1.7,1,2.7c0,2.4-1.6,4-3.9,4
				c-1.3,0-2.3-0.6-3.3-1.6c-4-4.3-9.9-6.8-16.7-6.8c-13.2,0-22.2,9.3-22.2,22.9c0,13.7,9,22.9,22.2,22.9c7.7,0,13.8-2.9,18.1-8.4
				c0.6-0.7,1.7-1.2,2.9-1.2c2.3,0,3.9,1.6,3.9,3.9C375.7,73.7,375.4,74.4,375,75.2z"/>
			
				<linearGradient id="SVGID_00000072989073751626621490000004718042426005861013_" gradientUnits="userSpaceOnUse" x1="234.5416" y1="55.6554" x2="513.5195" y2="55.6554">
				<stop  offset="0" style="stop-color:#3C8FAC"/>
				<stop  offset="1" style="stop-color:#523EAD"/>
			</linearGradient>
			<path style="fill:url(#SVGID_00000072989073751626621490000004718042426005861013_);" d="M440.5,30.4v50.5c0,2.8-1.5,4.5-4.1,4.5
				c-2.7,0-4.3-1.7-4.3-4.5v-5.7h-0.2c-4.6,7-12.8,11-23.3,11c-17.6,0-29.4-12.2-29.4-30.5c0-18.3,11.8-30.5,29.4-30.5
				c10.5,0,18.7,4,23.3,11h0.2v-5.7c0-2.9,1.6-4.5,4.3-4.5C439,25.9,440.5,27.5,440.5,30.4z M432.1,55.7c0-13.5-9.2-22.9-22.2-22.9
				c-13.2,0-22.2,9.3-22.2,22.9c0,13.7,9,22.9,22.2,22.9C422.9,78.6,432.1,69.3,432.1,55.7z"/>
			
				<linearGradient id="SVGID_00000183245093476393677300000017028928150584655503_" gradientUnits="userSpaceOnUse" x1="234.5416" y1="43.604" x2="513.5195" y2="43.604">
				<stop  offset="0" style="stop-color:#3C8FAC"/>
				<stop  offset="1" style="stop-color:#523EAD"/>
			</linearGradient>
			<path style="fill:url(#SVGID_00000183245093476393677300000017028928150584655503_);" d="M507.2,5.6v75.4c0,2.8-1.5,4.5-4.1,4.5
				c-2.7,0-4.3-1.7-4.3-4.5v-5.7h-0.2c-4.6,7-12.8,11-23.3,11c-17.6,0-29.4-12.2-29.4-30.5c0-18.3,11.8-30.5,29.4-30.5
				c10.5,0,18.7,4,23.3,11h0.2V5.6c0-2.9,1.6-4.5,4.3-4.5C505.7,1,507.2,2.6,507.2,5.6z M498.7,55.7c0-13.5-9.2-22.9-22.2-22.9
				c-13.2,0-22.2,9.3-22.2,22.9c0,13.7,9,22.9,22.2,22.9C489.6,78.6,498.7,69.3,498.7,55.7z"/>
			
				<linearGradient id="SVGID_00000052823856247450989560000014489187832879129515_" gradientUnits="userSpaceOnUse" x1="234.5416" y1="55.6546" x2="513.5195" y2="55.6546">
				<stop  offset="0" style="stop-color:#3C8FAC"/>
				<stop  offset="1" style="stop-color:#523EAD"/>
			</linearGradient>
			<path style="fill:url(#SVGID_00000052823856247450989560000014489187832879129515_);" d="M565.2,51.3
				c-1.7-11.1-10.1-18.5-22-18.5c-11.7,0-20.1,7.4-21.8,18.5c0,0-0.7,3-0.2,7.3c1.3,12,10,20,22.8,20c7.8,0,14.2-3,17.9-7.9
				c0.7-1,2-1.7,3.4-1.7c2.3,0,3.9,1.6,3.9,3.9c0,1-0.2,1.7-0.9,2.6c-5.2,6.7-14,10.7-24.4,10.7c-18.9,0-31.5-12.3-31.5-30.5
				s12.6-30.5,30.8-30.5c17.3,0,29.9,12.1,29.9,28.3c0,3.3-2,5.1-5.4,5.1h-37.1c-2,0-3.7-1.6-3.7-3.7c0-1,0.4-1.9,1.1-2.6
				c0.7-0.7,1.6-1.1,2.6-1.1H565.2z"/>
			
				<linearGradient id="SVGID_00000095296617556657387420000011588461060351833257_" gradientUnits="userSpaceOnUse" x1="234.5416" y1="55.2892" x2="513.5195" y2="55.2892">
				<stop  offset="0" style="stop-color:#3C8FAC"/>
				<stop  offset="1" style="stop-color:#523EAD"/>
			</linearGradient>
			<path style="fill:url(#SVGID_00000095296617556657387420000011588461060351833257_);" d="M667.9,51.1v29.8c0,2.8-1.6,4.5-4.3,4.5
				c-2.6,0-4.1-1.7-4.1-4.5v-29c0-12.4-5.2-19.2-15.4-19.2c-10.4,0-16.8,8.3-16.8,21.4v26.8c0,2.8-1.6,4.5-4.3,4.5
				c-2.6,0-4.1-1.7-4.1-4.5v-29c0-12.4-5.2-19.2-15.5-19.2c-10.3,0-16.7,8.3-16.7,21.4v26.8c0,2.8-1.6,4.5-4.1,4.5
				c-2.7,0-4.3-1.7-4.3-4.5V30.4c0-2.9,1.6-4.5,4.3-4.5c2.6,0,4.1,1.6,4.1,4.5v3.9h0.2c3.9-5.9,10.3-9.2,18.3-9.2
				c9.2,0,15.9,3.9,19.2,11.1h0.2c3.9-7.1,10.9-11.1,20.9-11.1C660.3,25.1,667.9,34.2,667.9,51.1z"/>
			
				<linearGradient id="SVGID_00000047044201393637310870000005363557624156835219_" gradientUnits="userSpaceOnUse" x1="234.5416" y1="67.3712" x2="513.5195" y2="67.3712">
				<stop  offset="0" style="stop-color:#3C8FAC"/>
				<stop  offset="1" style="stop-color:#523EAD"/>
			</linearGradient>
			<path style="fill:url(#SVGID_00000047044201393637310870000005363557624156835219_);" d="M730.7,30.4v49.8
				c0,17.8-12,28.7-29.9,28.7c-10.7,0-19.8-3.2-24.5-9.6c-0.6-0.9-0.9-1.6-0.9-2.6c0-2.3,1.6-4,4-4c1,0,1.8,0.4,2.6,1.1
				c4.8,5.2,10.7,7.6,18.7,7.6c12.8,0,20.6-7.9,20.6-20.9v-5.9H721c-4.4,6.6-11.8,10.5-21.7,10.5c-16.2,0-25.1-9.5-25.1-27.1V30.4
				c0-2.9,1.6-4.5,4.1-4.5c2.7,0,4.3,1.6,4.3,4.5v26.8c0,13.2,6.5,20.3,18.5,20.3c12.2,0,20.1-8.8,20.1-22.7V30.4
				c0-2.9,2.6-4.5,5.3-4.5C729.1,25.9,730.7,27.5,730.7,30.4z"/>
		</g>
	</g>
</g>
</svg>
